<svg xmlns="http://www.w3.org/2000/svg" xmlns:xlink="http://www.w3.org/1999/xlink" viewBox="0 0 885.14 833.84"><defs><clipPath id="a" transform="translate(0 -0.29)"><rect x="0.04" width="885" height="834" fill="none"/></clipPath></defs><title>basket</title><g clip-path="url(#a)"><path d="M396.84,685.92a74.1,74.1,0,1,1-74.1,74.1A74.11,74.11,0,0,1,396.84,685.92ZM381.14,760c0-14,16.95-20.95,26.8-11.1a15.71,15.71,0,0,1,0,22.21C398.1,781,381.14,774,381.14,760Z" transform="translate(0 -0.29)" fill-rule="evenodd"/><path d="M742.65,685.92a74.1,74.1,0,1,1-74.1,74.1A74.11,74.11,0,0,1,742.65,685.92ZM726.94,760c0-14,17-20.95,26.81-11.1a15.71,15.71,0,0,1,0,22.21C743.9,781,726.94,774,726.94,760Z" transform="translate(0 -0.29)" fill-rule="evenodd"/><path d="M659,523.62C754.2,511.17,832.71,447,863.94,358.27c39.44-92.77,16.7-136.65-10.4-149L560.79,171.39,177.4,115.45,141.6,89.53a71.89,71.89,0,1,0-35.94,46L142.21,162,292.89,532.91a85.32,85.32,0,0,0-12.76,19.59C254,607.89,295,670.71,355.89,670.71H813.46a29.21,29.21,0,0,0,0-58.41H355.89c-9.33,0-16.81-4-21.72-11.81a24.09,24.09,0,0,1,14.77-36.3ZM575.54,233,416.28,209.22l28.86,99.61L592,312.92l-6.62-38S579.71,248.29,575.54,233ZM83.13,64.51c-6.46-9.64-22.19-7.24-24.59,5-2.43,12.38,11.26,20.43,20.92,14A13.81,13.81,0,0,0,83.13,64.51ZM408.77,497.82c9.85-1.37,19.66-2.73,29.38-4l-37.07-128-114.4-3.18,58.21,143.29c21.07-2.17,42.55-5.15,63.88-8.11Zm53.37-130.31,34.39,118.67,122.82-16.07L602.17,371.4ZM262.76,303.75l121.31,3.38L353,200,212.27,179.44ZM640.54,239.5l9.5,73.42s101,6.58,134.5,6.58c16.5-20.67,35.1-63.4-4.5-67-11.66-1.06-26-2.22-41.09-3.45C702.72,246.12,661.71,242.79,640.54,239.5Zm36.39,221.36L659,371.4,789,374C763.38,412.38,722.82,448.59,676.93,460.86Z" transform="translate(0 -0.29)" fill-rule="evenodd"/></g></svg>