<svg xmlns="http://www.w3.org/2000/svg" viewBox="0 0 512 467.93"><title>libra</title><path d="M497,160.67h-5.91L430.59,9.43A15,15,0,0,0,411.1,1.07L307.39,42.55A63.37,63.37,0,0,0,271,17.88a83.83,83.83,0,0,0-30,0,63.08,63.08,0,0,0-47.56,70.26L89.76,129.61h0A15,15,0,0,0,81.41,138L20.91,289.2H15a15,15,0,0,0-15,15,79.36,79.36,0,0,0,79.27,79.27H111.4a79.36,79.36,0,0,0,79.27-79.27,15,15,0,0,0-15-15h-5.92L114.83,151.89,204.61,116A63.34,63.34,0,0,0,241,140.65V378.43H223.87c-43.71,0-78.84,30.79-78.84,74.5a15,15,0,0,0,15,15h192.8c8.28,0,15-5.76,15-10.26v-4.75c0-43.7-36-74.49-79.7-74.49H271V140.65a63.29,63.29,0,0,0,48.2-61.38,64.9,64.9,0,0,0-.63-8.88l71.17-28.46-47.5,118.74h-5.91a15,15,0,0,0-15,15,79.36,79.36,0,0,0,79.27,79.26h32.13A79.36,79.36,0,0,0,512,175.67,15,15,0,0,0,497,160.67ZM79.27,353.46H111.4a49.36,49.36,0,0,0,46.93-34.25h-126A49.35,49.35,0,0,0,79.27,353.46Zm-26-64.26h84.23L95.33,183.92ZM177.36,437.93H335.5c-6.36-19.85-25.43-29.5-47.36-29.5H223.87C201.93,408.43,183.72,418.08,177.36,437.93ZM222.8,79.27A33.2,33.2,0,1,0,256,46.07,33.24,33.24,0,0,0,222.8,79.27Zm236,81.4L416.67,55.39,374.55,160.67ZM400.6,224.93h32.13a49.34,49.34,0,0,0,46.93-34.25h-126A49.35,49.35,0,0,0,400.6,224.93Z" fill-rule="evenodd"/></svg>